<svg width="39" height="20" viewBox="0 0 39 20" fill="none" xmlns="http://www.w3.org/2000/svg">
<path fill-rule="evenodd" clip-rule="evenodd" d="M19.4653 17.462C23.482 17.3195 26.6946 14.0183 26.6946 9.9668C26.6946 8.69682 26.3789 7.50058 25.8218 6.45222L19.4653 17.462ZM17.2935 17.2237C16.6317 17.0509 16.0056 16.7899 15.4284 16.4541L22.9266 3.4668L22.6753 3.32169C23.3625 3.6824 23.9869 4.14659 24.5278 4.69356L17.2935 17.2237ZM19.1946 2.4668C19.8384 2.4668 20.4633 2.54793 21.0596 2.70053L13.8353 15.2135C12.511 13.861 11.6946 12.0092 11.6946 9.9668C11.6946 5.82466 15.0524 2.4668 19.1946 2.4668ZM19.1946 19.4668C24.2113 19.4668 28.3197 15.5783 28.6703 10.6509L38.1946 17.328V2.60557L28.6703 9.28272C28.3197 4.35532 24.2113 0.466797 19.1946 0.466797C14.1779 0.466797 10.0694 4.35532 9.71883 9.28272L0.19458 2.60557V17.328L9.71883 10.6509C10.0694 15.5783 14.1779 19.4668 19.1946 19.4668ZM31.1786 9.96679L36.1946 13.4833V6.45024L31.1786 9.96679ZM2.19458 13.4833L7.21056 9.96679L2.19458 6.45024L2.19458 13.4833Z" fill="black"/>
</svg>
