<svg width="339" height="65" viewBox="0 0 339 65" fill="none" xmlns="http://www.w3.org/2000/svg">
<path fill-rule="evenodd" clip-rule="evenodd" d="M32.1909 1.69161H2.56588V31.3166H32.1909V1.69161ZM0.920044 0.0457764V32.9624H32.1909V64.2333H65.1076V32.9624V31.3167V0.0457764H33.8367H32.1909H0.920044ZM55.9222 15.5117H49.8194V9.2312H47.479V15.5117H41.3763V17.4966H47.479V23.7771H49.8194V17.4966H55.9222V15.5117ZM11.4007 13.0595C11.4007 11.8943 11.8944 10.966 12.8819 10.2748C13.8892 9.58354 15.2421 9.23792 16.9406 9.23792C18.6391 9.23792 19.9623 9.59342 20.9103 10.3044C21.8781 11.0154 22.3817 11.914 22.4212 13.0003H20.1401C19.9623 11.7165 18.8761 11.0747 16.8813 11.0747C15.9136 11.0747 15.1631 11.2919 14.6298 11.7264C14.1163 12.1609 13.8596 12.6349 13.8596 13.1484C13.8596 13.6422 14.0571 14.0668 14.4521 14.4223C14.8471 14.758 15.4791 15.0543 16.3481 15.311L19.1921 16.259C20.3968 16.6343 21.3152 17.1182 21.9472 17.7107C22.5989 18.2834 22.9248 19.0833 22.9248 20.1103C22.9248 21.1175 22.4014 22.0359 21.3547 22.8654C20.3079 23.6752 18.8464 24.08 16.9702 24.08C15.0939 24.08 13.6324 23.6653 12.5857 22.8358C11.5389 21.9865 10.9859 20.9003 10.9267 19.577H13.1782C13.2177 20.4658 13.5732 21.1373 14.2447 21.5915C14.9359 22.026 15.7951 22.2433 16.8221 22.2433C17.8491 22.2433 18.6983 22.026 19.3698 21.5915C20.0413 21.157 20.3771 20.6435 20.3771 20.051C20.3771 19.4388 20.1796 18.9747 19.7846 18.6587C19.3896 18.3427 18.7477 18.0662 17.8589 17.8292L15.1038 16.9108C12.6351 16.18 11.4007 14.8963 11.4007 13.0595ZM42.6715 44.9762C42.6715 43.8109 43.1653 42.8827 44.1528 42.1914C45.16 41.5002 46.5129 41.1545 48.2114 41.1545C49.9099 41.1545 51.2332 41.51 52.1812 42.221C53.1489 42.932 53.6525 43.8307 53.692 44.9169H51.4109C51.2332 43.6332 50.1469 42.9913 48.1522 42.9913C47.1844 42.9913 46.4339 43.2085 45.9007 43.643C45.3872 44.0775 45.1304 44.5515 45.1304 45.065C45.1304 45.5588 45.3279 45.9834 45.7229 46.3389C46.1179 46.6747 46.7499 46.9709 47.6189 47.2277L50.4629 48.1757C51.6677 48.5509 52.586 49.0348 53.218 49.6273C53.8698 50.2 54.1957 50.9999 54.1957 52.0269C54.1957 53.0342 53.6723 53.9525 52.6255 54.782C51.5788 55.5918 50.1173 55.9967 48.241 55.9967C46.3648 55.9967 44.9033 55.5819 43.8565 54.7524C42.8098 53.9032 42.2568 52.8169 42.1975 51.4937H44.449C44.4885 52.3824 44.844 53.0539 45.5155 53.5082C46.2068 53.9427 47.0659 54.1599 48.0929 54.1599C49.1199 54.1599 49.9692 53.9427 50.6407 53.5082C51.3122 53.0737 51.6479 52.5602 51.6479 51.9677C51.6479 51.3554 51.4504 50.8913 51.0554 50.5753C50.6604 50.2593 50.0185 49.9828 49.1298 49.7458L46.3747 48.8274C43.9059 48.0967 42.6715 46.8129 42.6715 44.9762ZM33.8367 1.69161H63.4617V31.3166H33.8367V1.69161ZM63.4617 32.9625H33.8367V62.5875H63.4617V32.9625ZM220.326 11.6968V3.57953H222.636V23.7542H220.74L220.444 21.3842C219.99 22.2729 219.387 22.9444 218.637 23.3987C217.886 23.8529 217.067 24.08 216.178 24.08C214.381 24.08 212.87 23.3888 211.645 22.0063C210.441 20.6238 209.838 18.8265 209.838 16.6145C209.838 14.3828 210.431 12.5954 211.616 11.2524C212.821 9.9094 214.331 9.23791 216.148 9.23791C217.985 9.23791 219.378 10.0575 220.326 11.6968ZM216.297 11.3117C215.151 11.3117 214.183 11.7955 213.393 12.7633C212.623 13.731 212.238 15.0247 212.238 16.6442C212.238 18.2637 212.633 19.5672 213.423 20.5547C214.213 21.5224 215.161 22.0063 216.267 22.0063C217.373 22.0063 218.311 21.6409 219.081 20.9102C219.871 20.1597 220.286 19.1623 220.326 17.918V15.6073C220.326 14.284 219.94 13.2373 219.17 12.467C218.4 11.6968 217.442 11.3117 216.297 11.3117ZM161.183 23.843C162.585 24.2973 164.136 24.1294 165.834 23.3394L165.508 21.6804C164.6 22.0359 163.78 22.2137 163.05 22.2137C161.707 22.2137 161.035 21.4928 161.035 20.051V11.3709H165.479V9.5934H161.035V5.65328H158.724V9.5934H156.443V11.3709H158.724V20.0807C158.724 20.7719 158.833 21.3644 159.05 21.8582C159.465 22.8654 160.176 23.527 161.183 23.843ZM90.1343 13.0595C90.1343 11.8943 90.6281 10.966 91.6156 10.2748C92.6228 9.58353 93.9757 9.23791 95.6742 9.23791C97.3727 9.23791 98.6959 9.5934 99.6439 10.3044C100.612 11.0154 101.115 11.914 101.155 13.0003H98.8737C98.6959 11.7165 97.6097 11.0747 95.6149 11.0747C94.6472 11.0747 93.8967 11.2919 93.3634 11.7264C92.8499 12.1609 92.5932 12.6349 92.5932 13.1484C92.5932 13.6422 92.7907 14.0668 93.1857 14.4223C93.5807 14.758 94.2127 15.0543 95.0817 15.311L97.9257 16.259C99.1304 16.6343 100.049 17.1182 100.681 17.7107C101.333 18.2834 101.658 19.0833 101.658 20.1103C101.658 21.1175 101.135 22.0359 100.088 22.8654C99.0416 23.6752 97.5801 24.08 95.7038 24.08C93.8276 24.08 92.3661 23.6653 91.3193 22.8358C90.2726 21.9865 89.7196 20.9003 89.6603 19.577H91.9118C91.9513 20.4658 92.3068 21.1373 92.9783 21.5915C93.6696 22.026 94.5287 22.2433 95.5557 22.2433C96.5827 22.2433 97.4319 22.026 98.1034 21.5915C98.7749 21.157 99.1107 20.6435 99.1107 20.051C99.1107 19.4388 98.9132 18.9747 98.5182 18.6587C98.1232 18.3427 97.4813 18.0662 96.5926 17.8292L93.8374 16.9108C91.3687 16.18 90.1343 14.8963 90.1343 13.0595ZM106.439 9.5934L109.875 20.8805L113.253 10.2748H115.208L118.556 20.999L122.022 9.5934H124.332L119.711 23.7542H117.43L114.171 13.8298L110.972 23.7542H108.72L104.01 9.5934H106.439ZM136.171 19.6067C135.894 21.3249 134.778 22.184 132.823 22.184C131.539 22.184 130.542 21.7199 129.831 20.7917C129.12 19.8437 128.765 18.6389 128.765 17.1774H138.452C138.748 14.9654 138.403 13.0892 137.415 11.5487C136.447 10.0082 134.966 9.23791 132.971 9.23791C130.996 9.23791 129.406 9.9094 128.202 11.2524C127.017 12.5954 126.424 14.3927 126.424 16.6442C126.424 18.8957 127.017 20.7028 128.202 22.0655C129.387 23.4085 130.927 24.08 132.823 24.08C134.364 24.08 135.647 23.6949 136.674 22.9247C137.721 22.1347 138.353 21.0287 138.57 19.6067H136.171ZM132.882 11.1043C133.534 11.1043 134.087 11.2228 134.541 11.4598C135.746 12.1115 136.349 13.4249 136.349 15.3999H128.794C128.913 14.1754 129.318 13.1583 130.009 12.3485C130.72 11.519 131.678 11.1043 132.882 11.1043ZM148.07 22.184C150.025 22.184 151.141 21.3249 151.417 19.6067H153.817C153.6 21.0287 152.968 22.1347 151.921 22.9247C150.894 23.6949 149.61 24.08 148.07 24.08C146.174 24.08 144.633 23.4085 143.448 22.0655C142.263 20.7028 141.671 18.8957 141.671 16.6442C141.671 14.3927 142.263 12.5954 143.448 11.2524C144.653 9.9094 146.243 9.23791 148.218 9.23791C150.213 9.23791 151.694 10.0082 152.662 11.5487C153.649 13.0892 153.995 14.9654 153.698 17.1774H144.011C144.011 18.6389 144.367 19.8437 145.078 20.7917C145.789 21.7199 146.786 22.184 148.07 22.184ZM149.788 11.4598C149.334 11.2228 148.781 11.1043 148.129 11.1043C146.924 11.1043 145.966 11.519 145.255 12.3485C144.564 13.1583 144.159 14.1754 144.041 15.3999H151.595C151.595 13.4249 150.993 12.1115 149.788 11.4598ZM185.394 14.5704C185.394 13.2867 185.128 12.3683 184.595 11.8153C184.061 11.2623 183.281 10.9858 182.254 10.9858C181.247 10.9858 180.427 11.1932 179.795 11.6079C179.183 12.0029 178.877 12.6349 178.877 13.5039H176.3C176.3 11.3314 177.465 9.9884 179.795 9.47491C180.506 9.31691 181.277 9.23791 182.106 9.23791C183.864 9.23791 185.236 9.68228 186.224 10.571C187.211 11.4598 187.705 12.8127 187.705 14.6297V23.7542H185.691L185.454 21.3842C184.585 23.1814 183.015 24.08 180.743 24.08C179.223 24.08 177.998 23.6554 177.07 22.8062C176.161 21.9569 175.707 20.9003 175.707 19.6363C175.707 18.3723 176.211 17.3848 177.218 16.6738C178.245 15.9628 179.519 15.6073 181.04 15.6073C182.56 15.6073 184.012 15.864 185.394 16.3775V14.5704ZM185.394 17.8588C183.992 17.4638 182.768 17.2663 181.721 17.2663C180.674 17.2663 179.825 17.4539 179.173 17.8292C178.521 18.2044 178.196 18.7969 178.196 19.6067C178.196 21.3842 179.203 22.2729 181.217 22.2729C182.363 22.2729 183.34 21.868 184.15 21.0583C184.98 20.2288 185.394 19.1623 185.394 17.8588ZM200.224 9.23791C197.972 9.23791 196.382 10.2649 195.454 12.3189L195.188 9.5934H193.173V23.7542H195.513V16.7923C195.553 15.074 195.938 13.731 196.669 12.7633C197.4 11.7955 198.357 11.3117 199.542 11.3117C200.727 11.3117 201.636 11.6573 202.268 12.3485C202.92 13.0398 203.246 14.0668 203.246 15.4295V23.7542H205.556V15.4295C205.556 13.5138 205.082 12.0029 204.134 10.8969C203.206 9.79091 201.903 9.23791 200.224 9.23791ZM236.442 10.2748C235.455 10.966 234.961 11.8943 234.961 13.0595C234.961 14.8963 236.196 16.18 238.664 16.9108L241.419 17.8292C242.308 18.0662 242.95 18.3427 243.345 18.6587C243.74 18.9747 243.938 19.4388 243.938 20.051C243.938 20.6435 243.602 21.157 242.93 21.5915C242.259 22.026 241.41 22.2433 240.383 22.2433C239.356 22.2433 238.496 22.026 237.805 21.5915C237.134 21.1373 236.778 20.4658 236.739 19.577H234.487C234.546 20.9003 235.099 21.9865 236.146 22.8358C237.193 23.6653 238.654 24.08 240.531 24.08C242.407 24.08 243.868 23.6752 244.915 22.8654C245.962 22.0359 246.485 21.1175 246.485 20.1103C246.485 19.0833 246.159 18.2834 245.508 17.7107C244.876 17.1182 243.957 16.6343 242.753 16.259L239.909 15.311C239.04 15.0543 238.408 14.758 238.013 14.4223C237.618 14.0668 237.42 13.6422 237.42 13.1484C237.42 12.6349 237.677 12.1609 238.19 11.7264C238.724 11.2919 239.474 11.0747 240.442 11.0747C242.437 11.0747 243.523 11.7165 243.701 13.0003H245.982C245.942 11.914 245.439 11.0154 244.471 10.3044C243.523 9.5934 242.2 9.23791 240.501 9.23791C238.803 9.23791 237.45 9.58353 236.442 10.2748ZM260.064 14.5704C260.064 13.2867 259.798 12.3683 259.265 11.8153C258.731 11.2623 257.951 10.9858 256.924 10.9858C255.917 10.9858 255.097 11.1932 254.465 11.6079C253.853 12.0029 253.547 12.6349 253.547 13.5039H250.97C250.97 11.3314 252.135 9.9884 254.465 9.47491C255.176 9.31691 255.947 9.23791 256.776 9.23791C258.534 9.23791 259.906 9.68228 260.894 10.571C261.881 11.4598 262.375 12.8127 262.375 14.6297V23.7542H260.361L260.124 21.3842C259.255 23.1814 257.685 24.08 255.413 24.08C253.893 24.08 252.668 23.6554 251.74 22.8062C250.831 21.9569 250.377 20.9003 250.377 19.6363C250.377 18.3723 250.881 17.3848 251.888 16.6738C252.915 15.9628 254.189 15.6073 255.71 15.6073C257.23 15.6073 258.682 15.864 260.064 16.3775V14.5704ZM260.064 17.8588C258.662 17.4638 257.438 17.2663 256.391 17.2663C255.344 17.2663 254.495 17.4539 253.843 17.8292C253.191 18.2044 252.866 18.7969 252.866 19.6067C252.866 21.3842 253.873 22.2729 255.887 22.2729C257.033 22.2729 258.01 21.868 258.82 21.0583C259.65 20.2288 260.064 19.1623 260.064 17.8588ZM272.316 21.2953L268.05 9.5934H265.414L271.043 23.7542H273.62L279.249 9.5934H276.612L272.316 21.2953ZM287.868 9.23791C289.843 9.23791 291.432 9.87978 292.637 11.1635C293.862 12.4473 294.474 14.284 294.474 16.6738C294.474 19.0438 293.862 20.8707 292.637 22.1544C291.432 23.4382 289.843 24.08 287.868 24.08C285.893 24.08 284.293 23.4382 283.068 22.1544C281.864 20.8707 281.261 19.0438 281.261 16.6738C281.261 14.284 281.864 12.4473 283.068 11.1635C284.293 9.87978 285.893 9.23791 287.868 9.23791ZM292.104 16.6738C292.104 14.9753 291.748 13.652 291.037 12.704C290.326 11.7363 289.28 11.2524 287.897 11.2524C286.534 11.2524 285.488 11.7363 284.757 12.704C284.026 13.652 283.661 14.9753 283.661 16.6738C283.661 18.3525 284.006 19.6758 284.698 20.6435C285.389 21.5915 286.416 22.0655 287.779 22.0655C289.161 22.0655 290.228 21.5915 290.978 20.6435C291.729 19.6758 292.104 18.3525 292.104 16.6738ZM303.862 24.0208C306.035 24.0208 307.605 22.9938 308.572 20.9398V23.7542H310.913V9.56378H308.572V16.7034C308.533 18.2439 308.108 19.5079 307.299 20.4954C306.509 21.4829 305.472 21.9767 304.188 21.9767C301.976 21.9767 300.87 20.7818 300.87 18.392V9.56378H298.53V18.5698C298.53 20.4263 299.013 21.7989 299.981 22.6877C300.969 23.5764 302.262 24.0208 303.862 24.0208ZM322.687 11.5783C320.455 11.5783 319.3 13.336 319.221 16.8515V23.7542H316.881V9.56378H319.221V12.2893C319.932 10.3143 321.186 9.32678 322.983 9.32678C323.556 9.32678 324.099 9.41566 324.613 9.5934L324.494 11.8745C323.902 11.677 323.299 11.5783 322.687 11.5783ZM328.401 28.9978C327.334 28.9978 326.317 28.6225 325.349 27.872V30.005C326.574 30.6963 327.749 31.0419 328.875 31.0419C330.02 31.0419 330.958 30.6568 331.689 29.8865C332.439 29.1163 333.042 28.0103 333.496 26.5685L338.799 9.5934H336.429L333.081 20.8805L328.786 9.5934H326.179L331.985 23.7542L331.57 25.2058C331.235 26.371 330.859 27.24 330.445 27.8128C329.872 28.6028 329.191 28.9978 328.401 28.9978Z" fill="black"/>
</svg>
