<svg width="36" height="32" viewBox="0 0 36 32" fill="none" xmlns="http://www.w3.org/2000/svg">
<path d="M30.1546 11.0641C30.1546 11.0541 30.1546 11.0441 30.1546 11.0341C29.1946 5.01412 23.9746 0.414124 17.6846 0.414124C11.3946 0.414124 6.17458 5.01412 5.21458 11.0441C5.21458 11.0541 5.21458 11.0641 5.21458 11.0741H0.19458C0.19458 11.7541 0.23458 12.4141 0.30458 13.0741C0.95458 18.7641 4.34458 23.6141 9.11458 26.3041C8.26458 26.7041 7.67458 27.5641 7.67458 28.5641C7.67458 29.9441 8.79458 31.0641 10.1746 31.0641H25.1746C26.5546 31.0641 27.6746 29.9441 27.6746 28.5641C27.6746 27.5641 27.0846 26.7041 26.2346 26.3041C31.0046 23.6141 34.3946 18.7641 35.0446 13.0741C35.1146 12.4141 35.1546 11.7541 35.1546 11.0741H30.1546V11.0641ZM17.6846 2.41412C22.8746 2.41412 27.1846 6.12412 28.1246 11.0441H26.7446C25.8346 6.88412 22.1246 3.76412 17.6846 3.76412C13.2446 3.76412 9.53458 6.87412 8.62458 11.0441H7.24458C8.17458 6.12412 12.4946 2.41412 17.6846 2.41412ZM17.6846 7.24412C15.1846 7.24412 13.0546 8.82412 12.2446 11.0441H10.6946C11.5646 7.99412 14.3646 5.76412 17.6946 5.76412C21.0146 5.76412 23.8246 7.99412 24.6946 11.0441H23.1446C22.3146 8.82412 20.1846 7.24412 17.6846 7.24412ZM20.9146 11.0441H14.4546C15.1246 9.96412 16.3246 9.24412 17.6846 9.24412C19.0446 9.24412 20.2446 9.96412 20.9146 11.0441ZM25.1846 29.0541H10.1846C9.90458 29.0541 9.68458 28.8341 9.68458 28.5541C9.68458 28.2741 9.90458 28.0541 10.1846 28.0541H13.5946H21.7746H25.1846C25.4646 28.0541 25.6846 28.2741 25.6846 28.5541C25.6846 28.8341 25.4546 29.0541 25.1846 29.0541ZM21.5446 26.0541H13.8146C7.76458 24.4941 3.13458 19.3841 2.32458 13.0641H33.0446C32.2246 19.3841 27.5946 24.4941 21.5446 26.0541Z" fill="black"/>
</svg>
